<?xml version="1.0" encoding="UTF-8"?>
<!DOCTYPE svg PUBLIC "-//W3C//DTD SVG 1.1//EN" "http://www.w3.org/Graphics/SVG/1.1/DTD/svg11.dtd">
<svg xmlns="http://www.w3.org/2000/svg" version="1.1" width="202px" height="202px" style="shape-rendering:geometricPrecision; text-rendering:geometricPrecision; image-rendering:optimizeQuality; fill-rule:evenodd; clip-rule:evenodd" xmlns:xlink="http://www.w3.org/1999/xlink">
<g><path style="opacity:1" fill="#fdfdfe" d="M -0.5,-0.5 C 66.8333,-0.5 134.167,-0.5 201.5,-0.5C 201.5,66.8333 201.5,134.167 201.5,201.5C 134.167,201.5 66.8333,201.5 -0.5,201.5C -0.5,134.167 -0.5,66.8333 -0.5,-0.5 Z"/></g>
<g><path style="opacity:1" fill="#6619ab" d="M 45.5,10.5 C 52.5032,10.3389 56.0032,13.6723 56,20.5C 54.3674,22.4529 53.2007,24.6196 52.5,27C 53.3998,30.5323 54.3998,34.0323 55.5,37.5C 85.4926,38.4998 115.493,38.8332 145.5,38.5C 145.992,34.3722 146.992,30.3722 148.5,26.5C 143.703,21.9111 143.37,17.0778 147.5,12C 156.661,9.49108 160.495,12.9911 159,22.5C 156.772,25.0779 153.939,26.4113 150.5,26.5C 149.503,30.4918 148.503,34.4918 147.5,38.5C 154.233,41.4037 158.733,46.4037 161,53.5C 161.667,73.8333 161.667,94.1667 161,114.5C 158.167,121.333 153.333,126.167 146.5,129C 124.5,129.333 102.5,129.667 80.5,130C 73.2839,136.887 65.7839,143.387 58,149.5C 57.228,149.355 56.5613,149.022 56,148.5C 55.5005,142.175 55.3338,135.842 55.5,129.5C 46.6629,127.498 40.8295,122.165 38,113.5C 37.3333,93.8333 37.3333,74.1667 38,54.5C 40.2103,47.4555 44.7103,42.4555 51.5,39.5C 52.3542,35.3487 51.6875,31.3487 49.5,27.5C 39.2527,23.6382 37.9194,17.9715 45.5,10.5 Z"/></g>
<g><path style="opacity:1" fill="#f3edf8" d="M 66.5,60.5 C 78.3978,58.6053 85.7312,63.4386 88.5,75C 88.1667,75.8333 87.8333,76.6667 87.5,77.5C 85.9594,73.4397 83.6261,69.773 80.5,66.5C 68.9235,60.8541 61.4235,64.1875 58,76.5C 57.2825,77.4506 56.4491,77.6172 55.5,77C 54.4464,75.6124 54.2797,74.1124 55,72.5C 57.0451,66.6244 60.8785,62.6244 66.5,60.5 Z"/></g>
<g><path style="opacity:1" fill="#f1eaf7" d="M 124.5,60.5 C 134.328,59.494 141.161,63.494 145,72.5C 145.667,73.8333 145.667,75.1667 145,76.5C 144.333,77.8333 143.667,77.8333 143,76.5C 139.644,65.3744 132.477,61.8744 121.5,66C 118.193,69.4686 115.526,73.302 113.5,77.5C 112.156,71.9988 113.823,67.4988 118.5,64C 120.727,63.059 122.727,61.8923 124.5,60.5 Z"/></g>
<g><path style="opacity:1" fill="#f4eef9" d="M 86.5,98.5 C 87.5,98.5 88.5,98.5 89.5,98.5C 91.5795,108.71 97.5795,111.876 107.5,108C 110.773,105.681 112.44,102.514 112.5,98.5C 113.5,98.5 114.5,98.5 115.5,98.5C 114.441,107.059 109.607,111.726 101,112.5C 92.3926,111.726 87.5593,107.059 86.5,98.5 Z"/></g>
<g><path style="opacity:1" fill="#7f7f7f" d="M 88.5,157.5 C 87.5,157.5 86.5,157.5 85.5,157.5C 85.5,166.833 85.5,176.167 85.5,185.5C 84.5062,176.014 84.1729,166.348 84.5,156.5C 86.099,156.232 87.4324,156.566 88.5,157.5 Z"/></g>
<g><path style="opacity:1" fill="#000000" d="M 88.5,157.5 C 88.5,166.833 88.5,176.167 88.5,185.5C 87.5,185.5 86.5,185.5 85.5,185.5C 85.5,176.167 85.5,166.833 85.5,157.5C 86.5,157.5 87.5,157.5 88.5,157.5 Z"/></g>
<g><path style="opacity:1" fill="#090909" d="M 35.5,158.5 C 42.8333,158.5 50.1667,158.5 57.5,158.5C 57.5,159.5 57.5,160.5 57.5,161.5C 54.5,161.5 51.5,161.5 48.5,161.5C 48.5,169.5 48.5,177.5 48.5,185.5C 47.1667,185.5 45.8333,185.5 44.5,185.5C 44.5,177.5 44.5,169.5 44.5,161.5C 41.5,161.5 38.5,161.5 35.5,161.5C 35.5,160.5 35.5,159.5 35.5,158.5 Z"/></g>
<g><path style="opacity:1" fill="#191919" d="M 66.5,164.5 C 75.3784,163.75 79.7117,167.75 79.5,176.5C 74.1254,176.172 68.7921,176.505 63.5,177.5C 64.0318,179.741 65.3651,181.241 67.5,182C 71.0151,182.519 74.3484,182.186 77.5,181C 77.9574,181.414 78.2907,181.914 78.5,182.5C 73.2578,186.251 67.9245,186.417 62.5,183C 57.5718,175.384 58.9051,169.217 66.5,164.5 Z"/></g>
<g><path style="opacity:1" fill="#151515" d="M 93.5,165.5 C 94.8221,165.33 95.9887,165.663 97,166.5C 98.9096,171.317 101.076,175.984 103.5,180.5C 105.935,175.962 108.102,171.296 110,166.5C 111.183,165.269 112.349,165.269 113.5,166.5C 109.763,174.876 105.93,183.209 102,191.5C 98.367,194.241 94.867,194.074 91.5,191C 93.962,189.784 96.6287,189.118 99.5,189C 100.293,187.915 100.96,186.748 101.5,185.5C 98.2603,179.027 95.5937,172.36 93.5,165.5 Z"/></g>
<g><path style="opacity:1" fill="#161616" d="M 125.5,164.5 C 135.689,164.52 139.856,169.52 138,179.5C 133.97,185.76 128.637,187.093 122,183.5C 121.502,186.817 121.335,190.15 121.5,193.5C 120.167,193.5 118.833,193.5 117.5,193.5C 117.5,184.167 117.5,174.833 117.5,165.5C 118.5,165.5 119.5,165.5 120.5,165.5C 120.351,166.552 120.517,167.552 121,168.5C 122.397,166.93 123.897,165.596 125.5,164.5 Z"/></g>
<g><path style="opacity:1" fill="#191919" d="M 149.5,164.5 C 157.735,164.405 162.068,168.405 162.5,176.5C 156.794,176.171 151.128,176.505 145.5,177.5C 148.833,182.833 153.167,183.833 158.5,180.5C 160.488,181.289 160.821,182.455 159.5,184C 149.91,187.872 143.91,184.872 141.5,175C 142.155,169.858 144.822,166.358 149.5,164.5 Z"/></g>
<g><path style="opacity:1" fill="#f8f8f8" d="M 66.5,168.5 C 70.8492,167.577 74.1825,168.91 76.5,172.5C 72.1667,173.833 67.8333,173.833 63.5,172.5C 64.5244,171.148 65.5244,169.815 66.5,168.5 Z"/></g>
<g><path style="opacity:1" fill="#f8f8f8" d="M 124.5,168.5 C 134.309,168.138 136.976,172.305 132.5,181C 123.738,183.91 120.238,180.744 122,171.5C 123.045,170.627 123.878,169.627 124.5,168.5 Z"/></g>
<g><path style="opacity:1" fill="#f6f6f6" d="M 148.5,168.5 C 150.857,168.337 153.19,168.503 155.5,169C 157.032,169.7 158.032,170.866 158.5,172.5C 154.167,173.833 149.833,173.833 145.5,172.5C 146.524,171.148 147.524,169.815 148.5,168.5 Z"/></g>
</svg>
